<svg id="close_1_" xmlns="http://www.w3.org/2000/svg" width="17.4" height="17.2" viewBox="0 0 17.4 17.2">
  <path id="Path_107" data-name="Path 107" d="M1.65,19.628a1.648,1.648,0,0,1-1.17-.4,1.648,1.648,0,0,1,0-2.324L14.473,2.916a1.648,1.648,0,0,1,2.406,2.242L2.8,19.232a1.648,1.648,0,0,1-1.154.4Z" transform="translate(-0.001 -2.437)"/>
  <path id="Path_108" data-name="Path 108" d="M17.071,19.035a1.648,1.648,0,0,1-1.154-.478L1.925,4.564A1.648,1.648,0,0,1,4.248,2.24L18.324,16.233a1.648,1.648,0,0,1,.077,2.33q-.037.04-.077.077a1.648,1.648,0,0,1-1.253.4Z" transform="translate(-1.445 -1.844)"/>
</svg>
