<svg xmlns="http://www.w3.org/2000/svg" width="28" height="16.178" viewBox="0 0 28 16.178">
  <path id="email_1_" data-name="email (1)" d="M30.511,24H11.222a2.5,2.5,0,0,0-2.489,2.489v.933a.622.622,0,1,0,1.244,0v-.933a1.562,1.562,0,0,1,.062-.373l6.969,5.973L10.04,38.062a1.562,1.562,0,0,1-.062-.373v-.933a.622.622,0,1,0-1.244,0v.933a2.5,2.5,0,0,0,2.489,2.489H30.511A2.5,2.5,0,0,0,33,37.689v-11.2A2.5,2.5,0,0,0,30.511,24ZM10.973,25.276a.607.607,0,0,1,.249-.031H30.511a.607.607,0,0,1,.249.031L21.271,33.4a.654.654,0,0,1-.809,0ZM30.511,38.933H11.222a.606.606,0,0,1-.249-.031l7-6,1.68,1.462a1.811,1.811,0,0,0,2.427,0L23.76,32.9l7,6A.606.606,0,0,1,30.511,38.933Zm1.244-1.244a1.562,1.562,0,0,1-.062.373l-6.969-5.973,6.969-5.973a1.562,1.562,0,0,1,.062.373ZM6.867,30.533a.624.624,0,0,1,.622-.622h3.733a.622.622,0,0,1,0,1.244H7.489A.624.624,0,0,1,6.867,30.533Zm4.356,3.733h-5.6a.622.622,0,1,1,0-1.244h5.6a.622.622,0,1,1,0,1.244Z" transform="translate(-5 -24)"/>
</svg>
