<svg id="icon_Camera" xmlns="http://www.w3.org/2000/svg" width="58.863" height="58.864" viewBox="0 0 58.863 58.864">
  <path id="camera" d="M53.229,17.435H41.786l-3.628-4.122h1.27a2.228,2.228,0,0,0,2.226-2.226V2.229A2.228,2.228,0,0,0,39.427,0H19.443a2.228,2.228,0,0,0-2.226,2.226v8.858a2.228,2.228,0,0,0,2.226,2.226h1.27l-3.626,4.122H13.759V15.05A1.248,1.248,0,0,0,12.514,13.8H8.45A1.248,1.248,0,0,0,7.205,15.05v2.386H5.644A5.648,5.648,0,0,0,0,23.077V53.226a5.648,5.648,0,0,0,5.641,5.641H53.229a5.646,5.646,0,0,0,5.638-5.641V23.077a5.646,5.646,0,0,0-5.638-5.641Zm-34.4-6.348V2.229a.616.616,0,0,1,.616-.616H39.427a.617.617,0,0,1,.616.616v8.858a.616.616,0,0,1-.616.616H19.443a.616.616,0,0,1-.616-.616Zm4.031,2.226H36.013l3.628,4.122H19.232Zm-14.042,2.1h3.334v2.024H8.815ZM5.644,19.045H53.229a4.034,4.034,0,0,1,4.028,4.031v6.935H39.667a13.063,13.063,0,0,0-20.461,0H1.613V23.077a4.036,4.036,0,0,1,4.031-4.031ZM17.967,38.153A11.47,11.47,0,1,1,29.435,49.621,11.483,11.483,0,0,1,17.967,38.153Zm.139,6.528H1.613V31.622H18.106a13.06,13.06,0,0,0,0,13.059Zm24.411-6.528a13,13,0,0,0-1.75-6.531H57.257V44.681H40.767A13,13,0,0,0,42.517,38.153Zm10.712,19.1H5.644a4.036,4.036,0,0,1-4.031-4.031V46.291H19.2a13.065,13.065,0,0,0,20.463,0H57.257v6.935a4.034,4.034,0,0,1-4.028,4.031ZM36.8,4.054H22.073a.805.805,0,0,0-.805.805v3.6a.805.805,0,0,0,.805.805H36.8a.805.805,0,0,0,.805-.805v-3.6A.805.805,0,0,0,36.8,4.054Zm-.805,3.6H22.878V5.664H35.992ZM6.671,27.806h7.623a1.406,1.406,0,0,0,1.4-1.4V22.656a1.406,1.406,0,0,0-1.4-1.4H6.671a1.406,1.406,0,0,0-1.4,1.4V26.4a1.406,1.406,0,0,0,1.4,1.4Zm.205-4.944h7.212V26.2H6.876ZM29.435,46.881a8.729,8.729,0,1,0-8.728-8.728,8.739,8.739,0,0,0,8.728,8.728Zm0-15.849a7.119,7.119,0,1,1-7.118,7.121A7.129,7.129,0,0,1,29.435,31.032Z" transform="translate(-0.004 -0.003)" fill="#2e2e38"/>
</svg>
