<svg width="113" height="86" viewBox="0 0 113 86" fill="none" xmlns="http://www.w3.org/2000/svg">
<path d="M111.497 42.7609C111.497 42.7617 111.497 42.7626 111.497 42.7634C111.497 44.0983 111.02 45.2636 110.518 46.1175C110.268 46.5412 110.019 46.8765 109.835 47.103C109.743 47.2159 109.668 47.3007 109.619 47.355C109.594 47.382 109.576 47.4014 109.565 47.4127L109.556 47.4221L109.556 47.4225L109.555 47.4229L109.554 47.4236L109.554 47.4244L92.3224 64.6034C92.3217 64.604 92.3211 64.6046 92.3205 64.6052C91.3693 65.543 90.2031 66.0289 89.2401 66.2774C88.7623 66.4007 88.3478 66.4621 88.0566 66.4924C87.9114 66.5076 87.7982 66.5148 87.7246 66.5183C87.6878 66.5201 87.6611 66.5209 87.6453 66.5212L87.632 66.5215L111.497 42.7609ZM111.497 42.7609L111.497 42.748C111.496 42.7324 111.496 42.7058 111.494 42.6693C111.49 42.5962 111.483 42.4837 111.468 42.3394C111.438 42.0498 111.376 41.6377 111.252 41.1625C111.003 40.205 110.516 39.0447 109.574 38.0979M111.497 42.7609L109.574 38.0979M109.574 38.0979C109.573 38.0974 109.573 38.0969 109.572 38.0963L109.574 38.0979Z" fill="#FFE600" stroke="#2E2E38" stroke-width="2"/>
<path d="M49.6686 35.8536L49.6686 35.8535C49.6684 35.8534 49.6683 35.8533 49.6682 35.8531M49.6686 35.8536L50.0731 35.4473C49.6685 35.8535 49.6683 35.8533 49.6682 35.8531M49.6686 35.8536L49.6692 35.8542L49.686 35.8715C49.7023 35.8885 49.7286 35.9163 49.7635 35.9546C49.8333 36.0311 49.9372 36.1491 50.0639 36.305C50.3179 36.6175 50.6601 37.0784 51.0027 37.6608C51.6919 38.8324 52.355 40.448 52.355 42.3116L52.355 42.3124L52.3546 42.3363C52.354 42.3598 52.3529 42.3979 52.3504 42.4495C52.3454 42.5528 52.3351 42.7093 52.314 42.9087C52.2717 43.3083 52.1864 43.8751 52.0151 44.5281C51.6707 45.8415 50.9925 47.4513 49.6686 48.7696L49.6685 48.7696L49.6679 48.7702L49.6505 48.7869C49.6335 48.8031 49.6055 48.8293 49.5671 48.8641C49.4902 48.9336 49.3717 49.0371 49.2151 49.1633C48.9012 49.4163 48.4381 49.7572 47.853 50.0985C46.6759 50.7851 45.0517 51.4464 43.1772 51.4464M49.6686 35.8536L43.1772 51.4464M49.6682 35.8531C48.3442 34.5349 46.7268 33.8591 45.4063 33.5157C44.75 33.345 44.1801 33.26 43.7782 33.2178C43.5777 33.1967 43.4203 33.1865 43.3164 33.1815C43.2645 33.179 43.2261 33.1779 43.2024 33.1773L43.1782 33.1769L43.1772 33.1769C41.3031 33.1769 39.6789 33.8382 38.5018 34.5247C37.9167 34.866 37.4535 35.2069 37.1396 35.4598C36.983 35.586 36.8645 35.6895 36.7876 35.7591C36.7492 35.7938 36.7212 35.82 36.7041 35.8363L36.6868 35.853L36.6862 35.8535C35.3624 37.1717 34.6843 38.7814 34.3399 40.0949C34.1686 40.7478 34.0833 41.3147 34.041 41.7144C34.0199 41.9138 34.0096 42.0703 34.0047 42.1736C34.0022 42.2251 34.001 42.2633 34.0005 42.2868L34 42.3107L34 42.3116C34 44.1751 34.6631 45.7907 35.3522 46.9624C35.6948 47.5447 36.037 48.0057 36.2909 48.3182C36.4176 48.4741 36.5215 48.592 36.5913 48.6686C36.6262 48.7068 36.6525 48.7347 36.6688 48.7516L36.6856 48.7689L36.6862 48.7696C36.6863 48.7697 36.6865 48.7699 36.6866 48.77M49.6682 35.8531L36.6866 48.77M36.6866 48.77C38.0107 50.0883 39.6281 50.7642 40.9484 51.1076C41.6047 51.2783 42.1745 51.3633 42.5763 51.4055C42.7768 51.4266 42.9342 51.4368 43.0381 51.4418C43.09 51.4443 43.1284 51.4454 43.1521 51.446L43.1763 51.4464L43.1772 51.4464M36.6866 48.77L43.1772 51.4464M36.6847 35.855L36.6857 35.854L36.6853 35.8544L36.6847 35.855Z" fill="#FFE600" stroke="#2E2E38" stroke-width="2"/>
<g clip-path="url(#clip0_203_110)">
<path d="M79.399 42.057C76.076 42.057 73.3309 38.8594 72.8727 42.057H55.7245C55.4907 39.2215 54.328 36.5849 52.3854 34.4905L52.4533 34.5584L65.6117 21.4L64.9045 20.6928L51.7489 33.8484C49.6451 31.8737 46.984 30.6894 44.1211 30.4527V13.1301H44.1013C47.3084 12.6803 49.779 9.93243 49.779 6.60088C49.779 2.95531 46.8237 0 43.1781 0C39.5335 0 36.5773 2.95531 36.5773 6.60088C36.5773 9.93243 39.0488 12.6803 42.2559 13.1301H42.2352V30.4404C39.1393 30.6356 36.2566 31.9171 34.0501 34.1246C31.9029 36.2718 30.6261 39.0574 30.379 42.057H13.2017V43V43.943H30.3668C30.5525 46.903 31.7426 49.6593 33.7738 51.8225L20.7889 64.8083C19.8516 64.0078 18.6861 63.5523 17.4394 63.5523C16.0542 63.5523 14.7519 64.0917 13.7722 65.0714C11.7504 67.0941 11.7504 70.3833 13.7722 72.405C14.7519 73.3848 16.0542 73.9223 17.4394 73.9223C18.8256 73.9223 20.1279 73.3838 21.1076 72.4041C22.0874 71.4243 22.6268 70.1221 22.6268 68.7359C22.6268 67.5515 22.2119 66.4397 21.4829 65.5269L34.4876 52.5241C36.632 54.4827 39.3364 55.6294 42.2352 55.8104V72.869H42.2559C39.0488 73.3197 36.5773 76.0676 36.5773 79.3991C36.5773 83.0447 39.5335 86 43.1781 86C46.8237 86 49.779 83.0447 49.779 79.3991C49.779 76.0676 47.3084 73.3197 44.1013 72.869H44.1211V55.8C46.9067 55.57 49.498 54.4412 51.5745 52.5618L64.5716 65.559L65.2788 64.8517L52.2921 51.864C54.3487 49.6923 55.5491 46.9209 55.7349 43.943H72.8727C73.3309 47.1416 76.075 45.2509 79.399 45.2509C83.0446 45.2509 85.9999 46.6465 85.9999 43C85.9999 39.3544 83.0446 42.057 79.399 42.057ZM54.641 45.2509C54.5581 45.712 54.4421 46.1637 54.3063 46.6069C54.444 46.1609 54.5581 45.7092 54.641 45.2509ZM20.4409 71.7383C19.6394 72.5399 18.5738 72.9812 17.4394 72.9812C16.305 72.9812 15.2404 72.5389 14.4389 71.7393C12.7849 70.0853 12.7849 67.3921 14.4389 65.7381C15.2404 64.9366 16.305 64.4953 17.4394 64.4953C18.5738 64.4953 19.6394 64.9375 20.4409 65.7381C21.2434 66.5397 21.6838 67.6052 21.6838 68.7387C21.6838 69.8731 21.2425 70.9377 20.4409 71.7383ZM42.6755 51.1294C44.6926 51.2219 46.6757 50.5561 48.2127 49.2605C46.6766 50.5552 44.7058 51.2247 42.6755 51.1294ZM48.0534 48.127C46.719 49.4604 44.9434 50.195 43.0518 50.195C41.1602 50.195 39.3836 49.4604 38.0511 48.127C36.7178 46.7936 35.9832 45.018 35.9832 43.1264C35.9832 41.2357 36.7168 39.4591 38.0502 38.1257C39.3836 36.7923 41.1602 36.0587 43.0518 36.0587C44.9434 36.0587 46.72 36.7933 48.0534 38.1257C50.8106 40.8821 50.8106 45.3688 48.0534 48.127ZM54.7674 42.057C54.6024 40.2418 54.0375 38.4567 53.0361 36.8612C54.0187 38.4218 54.6005 40.1946 54.7674 42.057ZM53.7631 48.044C53.5547 48.4957 53.3199 48.9332 53.0559 49.3576C53.3209 48.9323 53.5566 48.4938 53.7631 48.044ZM54.2912 46.6691C54.1488 47.1208 53.9762 47.565 53.7801 47.9959C53.9772 47.5621 54.1497 47.1199 54.2912 46.6691Z" fill="#FFE600"/>
<path d="M6.60088 49.6009C10.2464 49.6009 13.2018 46.6456 13.2018 43C13.2018 39.3544 10.2464 36.3991 6.60088 36.3991C2.95531 36.3991 0 39.3544 0 43C0 46.6456 2.95531 49.6009 6.60088 49.6009Z" fill="#FFE600"/>
<path d="M68.9168 22.4477C70.3021 22.4477 71.6043 21.9083 72.5841 20.9295C74.6077 18.9068 74.6077 15.6167 72.5841 13.595C71.6043 12.6152 70.3021 12.0758 68.9159 12.0758C67.5307 12.0758 66.2275 12.6152 65.2477 13.595C64.2689 14.5747 63.7295 15.877 63.7295 17.2622C63.7295 18.6465 64.2689 19.9488 65.2477 20.9295C66.2275 21.9083 67.5307 22.4477 68.9168 22.4477ZM65.9144 14.2607C66.7169 13.4592 67.7805 13.0179 68.9159 13.0179C70.0512 13.0179 71.1159 13.4592 71.9174 14.2607C73.5714 15.9147 73.5714 18.6069 71.9174 20.2619C71.1159 21.0634 70.0512 21.5038 68.9168 21.5038C67.7824 21.5038 66.7169 21.0625 65.9144 20.2619C65.1128 19.4594 64.6725 18.3938 64.6725 17.2613C64.6725 16.1288 65.1138 15.0632 65.9144 14.2607Z" fill="#FFE600"/>
<path d="M68.9168 63.5523C67.5307 63.5523 66.2275 64.0917 65.2477 65.0715C64.2689 66.0503 63.7295 67.3535 63.7295 68.7387C63.7295 70.124 64.2689 71.4272 65.2477 72.4069C66.2275 73.3867 67.5307 73.9251 68.9168 73.9251C70.304 73.9251 71.6062 73.3857 72.5841 72.4069C74.6068 70.3852 74.6077 67.0942 72.5841 65.0724C71.6062 64.0917 70.304 63.5523 68.9168 63.5523ZM71.9174 71.7393C71.1159 72.5418 70.0512 72.9812 68.9168 72.9812C67.7824 72.9812 66.7169 72.5389 65.9144 71.7393C65.1128 70.9368 64.6725 69.8731 64.6725 68.7378C64.6725 67.6024 65.1138 66.5387 65.9144 65.7363C66.7169 64.9347 67.7805 64.4943 68.9168 64.4943C70.0503 64.4943 71.1159 64.9366 71.9174 65.7363C73.5714 67.3921 73.5714 70.0844 71.9174 71.7393Z" fill="#FFE600"/>
<path d="M17.4394 22.4477C18.5456 22.4477 19.5904 22.0913 20.4683 21.4547L33.572 34.5584L34.2792 33.8512L21.2199 20.7918C22.1213 19.8281 22.6268 18.5862 22.6268 17.2622C22.6268 15.877 22.0874 14.5738 21.1076 13.594C20.1288 12.6143 18.8266 12.0758 17.4404 12.0758C16.0542 12.0758 14.751 12.6152 13.7722 13.594C12.7943 14.5719 12.2559 15.8742 12.2559 17.2613C12.2559 18.6484 12.7943 19.9507 13.7722 20.9286C14.751 21.9083 16.0532 22.4477 17.4394 22.4477ZM14.4389 14.2607C15.2404 13.4592 16.305 13.0188 17.4404 13.0188C18.5738 13.0188 19.6394 13.4601 20.4409 14.2607C21.2434 15.0623 21.6838 16.1278 21.6838 17.2622C21.6838 18.3948 21.2415 19.4603 20.4409 20.2628C19.6394 21.0643 18.5748 21.5047 17.4394 21.5047C16.306 21.5047 15.2404 21.0634 14.4389 20.2628C13.6383 19.4632 13.1988 18.3966 13.1988 17.2622C13.1988 16.1278 13.6392 15.0613 14.4389 14.2607Z" fill="#FFE600"/>
</g>
<defs>
<clipPath id="clip0_203_110">
<rect width="86" height="86" fill="white"/>
</clipPath>
</defs>
</svg>
